<svg width="24" height="24" viewBox="0 0 24 24" fill="none" xmlns="http://www.w3.org/2000/svg">
<path d="M7 16C7 15.4477 6.55228 15 6 15C5.44772 15 5 15.4477 5 16H7ZM6 18H5C5 18.5523 5.44772 19 6 19V18ZM18 18V19C18.5523 19 19 18.5523 19 18H18ZM19 16C19 15.4477 18.5523 15 18 15C17.4477 15 17 15.4477 17 16H19ZM5 8C5 8.55228 5.44772 9 6 9C6.55228 9 7 8.55228 7 8H5ZM6 6V5C5.44772 5 5 5.44772 5 6H6ZM18 6H19C19 5.44772 18.5523 5 18 5V6ZM17 8C17 8.55228 17.4477 9 18 9C18.5523 9 19 8.55228 19 8H17ZM21 8C21 8.55228 21.4477 9 22 9C22.5523 9 23 8.55228 23 8H21ZM22 2H23C23 1.44772 22.5523 1 22 1V2ZM15 1C14.4477 1 14 1.44772 14 2C14 2.55228 14.4477 3 15 3V1ZM9 3C9.55228 3 10 2.55228 10 2C10 1.44772 9.55228 1 9 1V3ZM2 2V1C1.44772 1 1 1.44772 1 2H2ZM1 8C1 8.55228 1.44772 9 2 9C2.55228 9 3 8.55228 3 8H1ZM3 16C3 15.4477 2.55228 15 2 15C1.44772 15 1 15.4477 1 16H3ZM2 22H1C1 22.5523 1.44772 23 2 23V22ZM9 23C9.55228 23 10 22.5523 10 22C10 21.4477 9.55228 21 9 21V23ZM15 21C14.4477 21 14 21.4477 14 22C14 22.5523 14.4477 23 15 23V21ZM22 22V23C22.5523 23 23 22.5523 23 22H22ZM23 16C23 15.4477 22.5523 15 22 15C21.4477 15 21 15.4477 21 16H23ZM22 13C22.5523 13 23 12.5523 23 12C23 11.4477 22.5523 11 22 11V13ZM2 11C1.44772 11 1 11.4477 1 12C1 12.5523 1.44772 13 2 13V11ZM5 16V18H7V16H5ZM6 19H18V17H6V19ZM19 18V16H17V18H19ZM7 8V6H5V8H7ZM6 7H18V5H6V7ZM17 6V8H19V6H17ZM23 8V2H21V8H23ZM22 1H15V3H22V1ZM9 1H2V3H9V1ZM1 2V8H3V2H1ZM1 16V22H3V16H1ZM2 23H9V21H2V23ZM15 23H22V21H15V23ZM23 22V16H21V22H23ZM22 11H2V13H22V11Z" fill="black"/>
</svg>
